<svg width="400" height="70" viewBox="0 0 400 70" fill="none" xmlns="http://www.w3.org/2000/svg">
<path d="M30.132 16.6C30.7907 17.2587 31.12 18.108 31.12 19.148C31.12 20.0147 30.9293 20.8987 30.548 21.8L17.236 53L16.664 53.26L3.56 16.6H7.98L18.848 47.384L29.924 21.8C30.3053 20.9333 30.496 20.032 30.496 19.096C30.496 18.16 30.236 17.432 29.716 16.912L30.132 16.6ZM35.698 40.312C35.698 44.6107 36.4434 47.7653 37.934 49.776C39.4594 51.7867 41.4527 52.792 43.914 52.792C47.3807 52.792 50.466 52.272 53.17 51.232L53.326 51.596C50.5527 52.6707 47.4154 53.208 43.914 53.208C40.4474 53.208 37.622 52.168 35.438 50.088C33.254 48.008 32.162 44.8013 32.162 40.468C32.162 36.1347 33.306 32.772 35.594 30.38C37.882 27.988 40.794 26.792 44.33 26.792C47.1727 26.792 49.5647 27.6413 51.506 29.34C53.4474 31.0387 54.418 33.552 54.418 36.88C54.418 37.0533 54.418 37.2267 54.418 37.4H35.854C35.75 38.336 35.698 39.3067 35.698 40.312ZM50.882 36.984C50.8474 33.656 50.206 31.1947 48.958 29.6C47.71 28.0053 46.098 27.208 44.122 27.208C42.146 27.208 40.378 28.0747 38.818 29.808C37.2927 31.5413 36.322 33.9333 35.906 36.984H50.882ZM66.469 29.236V28.144C64.909 28.768 63.4877 30.0333 62.205 31.94C60.9224 33.812 60.2464 35.58 60.177 37.244V53H56.537V27H60.177V35.268C60.7317 33.2573 61.789 31.368 63.349 29.6C64.909 27.7973 66.677 26.8613 68.653 26.792H68.861C69.5544 26.792 70.1264 27.0347 70.577 27.52C71.0624 27.9707 71.305 28.5427 71.305 29.236C71.305 29.9293 71.0624 30.5013 70.577 30.952C70.1264 31.4027 69.5544 31.628 68.861 31.628C68.1677 31.628 67.5957 31.4027 67.145 30.952C66.6944 30.5013 66.469 29.9293 66.469 29.236ZM85.4665 53.208C81.8265 53.208 78.8625 52.168 76.5745 50.088C74.2865 48.008 73.1425 44.8013 73.1425 40.468C73.1425 36.1347 74.3212 32.772 76.6785 30.38C79.0705 27.988 82.0865 26.792 85.7265 26.792C89.4012 26.792 92.3825 27.832 94.6705 29.912C96.9585 31.992 98.1025 35.1987 98.1025 39.532C98.1025 43.8653 96.9065 47.228 94.5145 49.62C92.1572 52.012 89.1412 53.208 85.4665 53.208ZM85.8305 27.208C83.1958 27.208 81.0118 28.3867 79.2785 30.744C77.5452 33.0667 76.6785 36.3253 76.6785 40.52C76.6785 44.68 77.4758 47.7653 79.0705 49.776C80.6652 51.7867 82.7798 52.792 85.4145 52.792C88.0492 52.792 90.2332 51.6307 91.9665 49.308C93.6998 46.9507 94.5665 43.692 94.5665 39.532C94.5665 35.3373 93.7692 32.2347 92.1745 30.224C90.5798 28.2133 88.4652 27.208 85.8305 27.208Z" fill="black"/>
<path d="M119.339 17.016C123.361 16.7387 126.897 16.6 129.947 16.6C138.545 16.6 142.843 19.6333 142.843 25.7C142.843 28.508 142.115 30.9693 140.659 33.084C139.897 34.228 138.718 35.1467 137.123 35.84C135.529 36.4987 133.605 36.828 131.351 36.828H123.655V53H119.339V17.016ZM129.999 17.12C127.989 17.12 125.874 17.2413 123.655 17.484V36.308H131.351C136.239 36.1 138.683 32.5987 138.683 25.804C138.683 23.0307 137.955 20.8987 136.499 19.408C135.043 17.8827 132.877 17.12 129.999 17.12ZM168.869 53C167.448 53 166.356 52.688 165.593 52.064C164.865 51.44 164.484 50.816 164.449 50.192L164.397 49.308V32.98C164.397 30.2413 163.669 28.4907 162.213 27.728C161.52 27.3813 160.636 27.208 159.561 27.208C157.412 27.208 155.471 28.092 153.737 29.86C152.039 31.5933 151.189 33.1533 151.189 34.54V53H147.549V14.052H151.189V32.928C151.744 31.4373 152.801 30.0507 154.361 28.768C155.921 27.4507 157.672 26.792 159.613 26.792C162.976 26.792 165.212 27.3813 166.321 28.56C167.465 29.704 168.037 31.1947 168.037 33.032V49.308C168.037 50.3133 168.228 51.0933 168.609 51.648C169.025 52.168 169.424 52.4453 169.805 52.48L170.429 52.584H172.041V53H168.869ZM186.674 53.208C183.034 53.208 180.07 52.168 177.782 50.088C175.494 48.008 174.35 44.8013 174.35 40.468C174.35 36.1347 175.528 32.772 177.886 30.38C180.278 27.988 183.294 26.792 186.934 26.792C190.608 26.792 193.59 27.832 195.878 29.912C198.166 31.992 199.31 35.1987 199.31 39.532C199.31 43.8653 198.114 47.228 195.722 49.62C193.364 52.012 190.348 53.208 186.674 53.208ZM187.038 27.208C184.403 27.208 182.219 28.3867 180.486 30.744C178.752 33.0667 177.886 36.3253 177.886 40.52C177.886 44.68 178.683 47.7653 180.278 49.776C181.872 51.7867 183.987 52.792 186.622 52.792C189.256 52.792 191.44 51.6307 193.174 49.308C194.907 46.9507 195.774 43.692 195.774 39.532C195.774 35.3373 194.976 32.2347 193.382 30.224C191.787 28.2133 189.672 27.208 187.038 27.208ZM203.187 27.416V27H204.279V21.8H207.919V27H215.875V27.416H207.919V46.344C207.919 48.5973 208.162 50.2267 208.647 51.232C209.167 52.2373 210.225 52.74 211.819 52.74C213.449 52.74 215.095 52.4107 216.759 51.752L216.915 52.168C215.182 52.8267 213.189 53.156 210.935 53.156C208.717 53.156 207.053 52.7053 205.943 51.804C204.834 50.868 204.279 49.0307 204.279 46.292V27.416H203.187ZM230.549 53.208C226.909 53.208 223.945 52.168 221.657 50.088C219.369 48.008 218.225 44.8013 218.225 40.468C218.225 36.1347 219.403 32.772 221.761 30.38C224.153 27.988 227.169 26.792 230.809 26.792C234.483 26.792 237.465 27.832 239.753 29.912C242.041 31.992 243.185 35.1987 243.185 39.532C243.185 43.8653 241.989 47.228 239.597 49.62C237.239 52.012 234.223 53.208 230.549 53.208ZM230.913 27.208C228.278 27.208 226.094 28.3867 224.361 30.744C222.627 33.0667 221.761 36.3253 221.761 40.52C221.761 44.68 222.558 47.7653 224.153 49.776C225.747 51.7867 227.862 52.792 230.497 52.792C233.131 52.792 235.315 51.6307 237.049 49.308C238.782 46.9507 239.649 43.692 239.649 39.532C239.649 35.3373 238.851 32.2347 237.257 30.224C235.662 28.2133 233.547 27.208 230.913 27.208ZM247.062 40.936C247.062 36.4293 248.154 32.9453 250.338 30.484C252.522 28.0227 255.798 26.792 260.166 26.792C263.39 26.792 266.666 27.364 269.994 28.508V53.624C269.96 61.8747 266.354 66 259.178 66C255.226 66 251.846 64.7173 249.038 62.152L249.402 61.84C252.384 64.336 255.642 65.584 259.178 65.584C263.962 65.584 266.354 61.5973 266.354 53.624V48.476C265.696 49.6893 264.604 50.764 263.078 51.7C261.553 52.636 259.75 53.104 257.67 53.104C250.598 52.9307 247.062 48.8747 247.062 40.936ZM257.722 52.688C260.045 52.688 262.038 52.064 263.702 50.816C265.366 49.568 266.25 48.3373 266.354 47.124V28.768C263.858 27.728 261.744 27.208 260.01 27.208C256.925 27.208 254.602 28.4213 253.042 30.848C251.482 33.24 250.702 36.6027 250.702 40.936C250.702 48.7707 253.042 52.688 257.722 52.688ZM286.403 29.236V28.144C284.843 28.768 283.421 30.0333 282.139 31.94C280.856 33.812 280.18 35.58 280.111 37.244V53H276.471V27H280.111V35.268C280.665 33.2573 281.723 31.368 283.283 29.6C284.843 27.7973 286.611 26.8613 288.587 26.792H288.795C289.488 26.792 290.06 27.0347 290.511 27.52C290.996 27.9707 291.239 28.5427 291.239 29.236C291.239 29.9293 290.996 30.5013 290.511 30.952C290.06 31.4027 289.488 31.628 288.795 31.628C288.101 31.628 287.529 31.4027 287.079 30.952C286.628 30.5013 286.403 29.9293 286.403 29.236ZM315.06 53C312.703 53 311.091 52.5493 310.224 51.648C309.427 50.8853 309.028 50.2267 309.028 49.672V48.58C307.329 51.6653 304.608 53.208 300.864 53.208C296.496 53.208 294.017 51.232 293.428 47.28C293.359 46.864 293.324 46.448 293.324 46.032C293.324 45.5813 293.393 45.096 293.532 44.576C293.671 44.056 294.069 43.484 294.728 42.86C296.045 41.612 298.94 40.8493 303.412 40.572C304.521 40.468 305.544 40.416 306.48 40.416C307.416 40.416 308.265 40.4507 309.028 40.52V31.888C308.959 31.8533 308.959 31.6973 309.028 31.42C309.097 31.108 309.028 30.7267 308.82 30.276C308.647 29.7907 308.404 29.3227 308.092 28.872C307.78 28.4213 307.225 28.04 306.428 27.728C305.631 27.3813 304.591 27.208 303.308 27.208C302.025 27.208 300.517 27.4507 298.784 27.936C297.085 28.3867 295.837 28.8373 295.04 29.288L294.832 28.924C297.917 27.5027 301.055 26.792 304.244 26.792C307.815 26.792 310.172 27.4333 311.316 28.716C312.217 29.7213 312.668 30.7787 312.668 31.888V49.308C312.668 50.3133 312.859 51.0933 313.24 51.648C313.656 52.168 314.072 52.4453 314.488 52.48L315.06 52.584H316.672V53H315.06ZM301.696 52.792C303.533 52.792 305.18 52.168 306.636 50.92C308.127 49.6373 308.924 48.4067 309.028 47.228V40.936C308.092 40.8667 307.139 40.832 306.168 40.832C305.232 40.832 304.296 40.884 303.36 40.988C300.725 41.3 299.009 41.8893 298.212 42.756C297.415 43.6227 297.016 44.8187 297.016 46.344C297.016 46.6213 297.033 46.9333 297.068 47.28C297.38 50.9547 298.923 52.792 301.696 52.792ZM320.053 27H323.693V33.448C324.282 31.8533 325.374 30.3453 326.969 28.924C328.564 27.5027 330.366 26.792 332.377 26.792C339.414 26.792 342.933 30.9173 342.933 39.168C342.933 48.528 338.392 53.208 329.309 53.208C327.68 53.208 325.808 52.8267 323.693 52.064V66H320.053V27ZM332.325 27.208C330.176 27.208 328.234 28.144 326.501 30.016C324.768 31.8533 323.832 33.5173 323.693 35.008V51.596C325.808 52.3933 327.662 52.792 329.257 52.792C335.948 52.792 339.293 48.2333 339.293 39.116C339.293 31.1773 336.97 27.208 332.325 27.208ZM368.947 53C367.526 53 366.434 52.688 365.671 52.064C364.943 51.44 364.562 50.816 364.527 50.192L364.475 49.308V32.98C364.475 30.2413 363.747 28.4907 362.291 27.728C361.598 27.3813 360.714 27.208 359.639 27.208C357.49 27.208 355.549 28.092 353.815 29.86C352.117 31.5933 351.267 33.1533 351.267 34.54V53H347.627V14.052H351.267V32.928C351.822 31.4373 352.879 30.0507 354.439 28.768C355.999 27.4507 357.75 26.792 359.691 26.792C363.054 26.792 365.29 27.3813 366.399 28.56C367.543 29.704 368.115 31.1947 368.115 33.032V49.308C368.115 50.3133 368.306 51.0933 368.687 51.648C369.103 52.168 369.502 52.4453 369.883 52.48L370.507 52.584H372.119V53H368.947ZM379.808 62.308C378.699 64.7693 377.329 66 375.7 66C374.972 66 374.123 65.8787 373.152 65.636V65.22C373.949 65.428 374.66 65.532 375.284 65.532C377.052 65.532 378.404 64.4573 379.34 62.308L383.708 53H383.656L373.984 27H377.624L385.684 48.684L393.64 32.2C394.056 31.472 394.264 30.6053 394.264 29.6C394.264 28.5947 393.987 27.832 393.432 27.312L393.744 27C393.883 27.0693 394.056 27.2773 394.264 27.624C394.507 27.9707 394.645 28.2827 394.68 28.56C394.749 28.8373 394.784 29.0973 394.784 29.34C394.784 30.276 394.576 31.2293 394.16 32.2L384.176 53L379.808 62.308Z" fill="#7C7C7C"/>
</svg>
