<svg width="460" height="70" viewBox="0 0 460 70" fill="none" xmlns="http://www.w3.org/2000/svg">
<path d="M182.64 17.016C186.661 16.7387 190.197 16.6 193.248 16.6C201.845 16.6 206.144 19.6333 206.144 25.7C206.144 28.508 205.416 30.9693 203.96 33.084C203.197 34.228 202.019 35.1467 200.424 35.84C198.829 36.4987 196.905 36.828 194.652 36.828H186.956V53H182.64V17.016ZM193.3 17.12C191.289 17.12 189.175 17.2413 186.956 17.484V36.308H194.652C199.54 36.1 201.984 32.5987 201.984 25.804C201.984 23.0307 201.256 20.8987 199.8 19.408C198.344 17.8827 196.177 17.12 193.3 17.12ZM232.17 53C230.749 53 229.657 52.688 228.894 52.064C228.166 51.44 227.785 50.816 227.75 50.192L227.698 49.308V32.98C227.698 30.2413 226.97 28.4907 225.514 27.728C224.821 27.3813 223.937 27.208 222.862 27.208C220.713 27.208 218.771 28.092 217.038 29.86C215.339 31.5933 214.49 33.1533 214.49 34.54V53H210.85V14.052H214.49V32.928C215.045 31.4373 216.102 30.0507 217.662 28.768C219.222 27.4507 220.973 26.792 222.914 26.792C226.277 26.792 228.513 27.3813 229.622 28.56C230.766 29.704 231.338 31.1947 231.338 33.032V49.308C231.338 50.3133 231.529 51.0933 231.91 51.648C232.326 52.168 232.725 52.4453 233.106 52.48L233.73 52.584H235.342V53H232.17ZM249.974 53.208C246.334 53.208 243.37 52.168 241.082 50.088C238.794 48.008 237.65 44.8013 237.65 40.468C237.65 36.1347 238.829 32.772 241.186 30.38C243.578 27.988 246.594 26.792 250.234 26.792C253.909 26.792 256.89 27.832 259.178 29.912C261.466 31.992 262.61 35.1987 262.61 39.532C262.61 43.8653 261.414 47.228 259.022 49.62C256.665 52.012 253.649 53.208 249.974 53.208ZM250.338 27.208C247.704 27.208 245.52 28.3867 243.786 30.744C242.053 33.0667 241.186 36.3253 241.186 40.52C241.186 44.68 241.984 47.7653 243.578 49.776C245.173 51.7867 247.288 52.792 249.922 52.792C252.557 52.792 254.741 51.6307 256.474 49.308C258.208 46.9507 259.074 43.692 259.074 39.532C259.074 35.3373 258.277 32.2347 256.682 30.224C255.088 28.2133 252.973 27.208 250.338 27.208ZM266.488 27.416V27H267.58V21.8H271.22V27H279.176V27.416H271.22V46.344C271.22 48.5973 271.463 50.2267 271.948 51.232C272.468 52.2373 273.525 52.74 275.12 52.74C276.749 52.74 278.396 52.4107 280.06 51.752L280.216 52.168C278.483 52.8267 276.489 53.156 274.236 53.156C272.017 53.156 270.353 52.7053 269.244 51.804C268.135 50.868 267.58 49.0307 267.58 46.292V27.416H266.488ZM293.849 53.208C290.209 53.208 287.245 52.168 284.957 50.088C282.669 48.008 281.525 44.8013 281.525 40.468C281.525 36.1347 282.704 32.772 285.061 30.38C287.453 27.988 290.469 26.792 294.109 26.792C297.784 26.792 300.765 27.832 303.053 29.912C305.341 31.992 306.485 35.1987 306.485 39.532C306.485 43.8653 305.289 47.228 302.897 49.62C300.54 52.012 297.524 53.208 293.849 53.208ZM294.213 27.208C291.579 27.208 289.395 28.3867 287.661 30.744C285.928 33.0667 285.061 36.3253 285.061 40.52C285.061 44.68 285.859 47.7653 287.453 49.776C289.048 51.7867 291.163 52.792 293.797 52.792C296.432 52.792 298.616 51.6307 300.349 49.308C302.083 46.9507 302.949 43.692 302.949 39.532C302.949 35.3373 302.152 32.2347 300.557 30.224C298.963 28.2133 296.848 27.208 294.213 27.208ZM310.363 40.936C310.363 36.4293 311.455 32.9453 313.639 30.484C315.823 28.0227 319.099 26.792 323.467 26.792C326.691 26.792 329.967 27.364 333.295 28.508V53.624C333.26 61.8747 329.655 66 322.479 66C318.527 66 315.147 64.7173 312.339 62.152L312.703 61.84C315.684 64.336 318.943 65.584 322.479 65.584C327.263 65.584 329.655 61.5973 329.655 53.624V48.476C328.996 49.6893 327.904 50.764 326.379 51.7C324.854 52.636 323.051 53.104 320.971 53.104C313.899 52.9307 310.363 48.8747 310.363 40.936ZM321.023 52.688C323.346 52.688 325.339 52.064 327.003 50.816C328.667 49.568 329.551 48.3373 329.655 47.124V28.768C327.159 27.728 325.044 27.208 323.311 27.208C320.226 27.208 317.903 28.4213 316.343 30.848C314.783 33.24 314.003 36.6027 314.003 40.936C314.003 48.7707 316.343 52.688 321.023 52.688ZM349.703 29.236V28.144C348.143 28.768 346.722 30.0333 345.439 31.94C344.157 33.812 343.481 35.58 343.411 37.244V53H339.771V27H343.411V35.268C343.966 33.2573 345.023 31.368 346.583 29.6C348.143 27.7973 349.911 26.8613 351.887 26.792H352.095C352.789 26.792 353.361 27.0347 353.811 27.52C354.297 27.9707 354.539 28.5427 354.539 29.236C354.539 29.9293 354.297 30.5013 353.811 30.952C353.361 31.4027 352.789 31.628 352.095 31.628C351.402 31.628 350.83 31.4027 350.379 30.952C349.929 30.5013 349.703 29.9293 349.703 29.236ZM378.361 53C376.003 53 374.391 52.5493 373.525 51.648C372.727 50.8853 372.329 50.2267 372.329 49.672V48.58C370.63 51.6653 367.909 53.208 364.165 53.208C359.797 53.208 357.318 51.232 356.729 47.28C356.659 46.864 356.625 46.448 356.625 46.032C356.625 45.5813 356.694 45.096 356.833 44.576C356.971 44.056 357.37 43.484 358.029 42.86C359.346 41.612 362.241 40.8493 366.713 40.572C367.822 40.468 368.845 40.416 369.781 40.416C370.717 40.416 371.566 40.4507 372.329 40.52V31.888C372.259 31.8533 372.259 31.6973 372.329 31.42C372.398 31.108 372.329 30.7267 372.121 30.276C371.947 29.7907 371.705 29.3227 371.393 28.872C371.081 28.4213 370.526 28.04 369.729 27.728C368.931 27.3813 367.891 27.208 366.609 27.208C365.326 27.208 363.818 27.4507 362.085 27.936C360.386 28.3867 359.138 28.8373 358.341 29.288L358.133 28.924C361.218 27.5027 364.355 26.792 367.545 26.792C371.115 26.792 373.473 27.4333 374.617 28.716C375.518 29.7213 375.969 30.7787 375.969 31.888V49.308C375.969 50.3133 376.159 51.0933 376.541 51.648C376.957 52.168 377.373 52.4453 377.789 52.48L378.361 52.584H379.973V53H378.361ZM364.997 52.792C366.834 52.792 368.481 52.168 369.937 50.92C371.427 49.6373 372.225 48.4067 372.329 47.228V40.936C371.393 40.8667 370.439 40.832 369.469 40.832C368.533 40.832 367.597 40.884 366.661 40.988C364.026 41.3 362.31 41.8893 361.513 42.756C360.715 43.6227 360.317 44.8187 360.317 46.344C360.317 46.6213 360.334 46.9333 360.369 47.28C360.681 50.9547 362.223 52.792 364.997 52.792ZM383.354 27H386.994V33.448C387.583 31.8533 388.675 30.3453 390.27 28.924C391.865 27.5027 393.667 26.792 395.678 26.792C402.715 26.792 406.234 30.9173 406.234 39.168C406.234 48.528 401.693 53.208 392.61 53.208C390.981 53.208 389.109 52.8267 386.994 52.064V66H383.354V27ZM395.626 27.208C393.477 27.208 391.535 28.144 389.802 30.016C388.069 31.8533 387.133 33.5173 386.994 35.008V51.596C389.109 52.3933 390.963 52.792 392.558 52.792C399.249 52.792 402.594 48.2333 402.594 39.116C402.594 31.1773 400.271 27.208 395.626 27.208ZM432.248 53C430.827 53 429.735 52.688 428.972 52.064C428.244 51.44 427.863 50.816 427.828 50.192L427.776 49.308V32.98C427.776 30.2413 427.048 28.4907 425.592 27.728C424.899 27.3813 424.015 27.208 422.94 27.208C420.791 27.208 418.849 28.092 417.116 29.86C415.417 31.5933 414.568 33.1533 414.568 34.54V53H410.928V14.052H414.568V32.928C415.123 31.4373 416.18 30.0507 417.74 28.768C419.3 27.4507 421.051 26.792 422.992 26.792C426.355 26.792 428.591 27.3813 429.7 28.56C430.844 29.704 431.416 31.1947 431.416 33.032V49.308C431.416 50.3133 431.607 51.0933 431.988 51.648C432.404 52.168 432.803 52.4453 433.184 52.48L433.808 52.584H435.42V53H432.248ZM443.109 62.308C441.999 64.7693 440.63 66 439.001 66C438.273 66 437.423 65.8787 436.453 65.636V65.22C437.25 65.428 437.961 65.532 438.585 65.532C440.353 65.532 441.705 64.4573 442.641 62.308L447.009 53H446.957L437.285 27H440.925L448.985 48.684L456.941 32.2C457.357 31.472 457.565 30.6053 457.565 29.6C457.565 28.5947 457.287 27.832 456.733 27.312L457.045 27C457.183 27.0693 457.357 27.2773 457.565 27.624C457.807 27.9707 457.946 28.2827 457.981 28.56C458.05 28.8373 458.085 29.0973 458.085 29.34C458.085 30.276 457.877 31.2293 457.461 32.2L447.477 53L443.109 62.308Z" fill="#7C7C7C"/>
<path d="M28.132 16.6C28.7907 17.2587 29.12 18.108 29.12 19.148C29.12 20.0147 28.9293 20.8987 28.548 21.8L15.236 53L14.664 53.26L1.56 16.6H5.98L16.848 47.384L27.924 21.8C28.3053 20.9333 28.496 20.032 28.496 19.096C28.496 18.16 28.236 17.432 27.716 16.912L28.132 16.6ZM33.698 40.312C33.698 44.6107 34.4434 47.7653 35.934 49.776C37.4594 51.7867 39.4527 52.792 41.914 52.792C45.3807 52.792 48.466 52.272 51.17 51.232L51.326 51.596C48.5527 52.6707 45.4154 53.208 41.914 53.208C38.4474 53.208 35.622 52.168 33.438 50.088C31.254 48.008 30.162 44.8013 30.162 40.468C30.162 36.1347 31.306 32.772 33.594 30.38C35.882 27.988 38.794 26.792 42.33 26.792C45.1727 26.792 47.5647 27.6413 49.506 29.34C51.4474 31.0387 52.418 33.552 52.418 36.88C52.418 37.0533 52.418 37.2267 52.418 37.4H33.854C33.75 38.336 33.698 39.3067 33.698 40.312ZM48.882 36.984C48.8474 33.656 48.206 31.1947 46.958 29.6C45.71 28.0053 44.098 27.208 42.122 27.208C40.146 27.208 38.378 28.0747 36.818 29.808C35.2927 31.5413 34.322 33.9333 33.906 36.984H48.882ZM64.469 29.236V28.144C62.909 28.768 61.4877 30.0333 60.205 31.94C58.9224 33.812 58.2464 35.58 58.177 37.244V53H54.537V27H58.177V35.268C58.7317 33.2573 59.789 31.368 61.349 29.6C62.909 27.7973 64.677 26.8613 66.653 26.792H66.861C67.5544 26.792 68.1264 27.0347 68.577 27.52C69.0624 27.9707 69.305 28.5427 69.305 29.236C69.305 29.9293 69.0624 30.5013 68.577 30.952C68.1264 31.4027 67.5544 31.628 66.861 31.628C66.1677 31.628 65.5957 31.4027 65.145 30.952C64.6944 30.5013 64.469 29.9293 64.469 29.236ZM83.4665 53.208C79.8265 53.208 76.8625 52.168 74.5745 50.088C72.2865 48.008 71.1425 44.8013 71.1425 40.468C71.1425 36.1347 72.3212 32.772 74.6785 30.38C77.0705 27.988 80.0865 26.792 83.7265 26.792C87.4012 26.792 90.3825 27.832 92.6705 29.912C94.9585 31.992 96.1025 35.1987 96.1025 39.532C96.1025 43.8653 94.9065 47.228 92.5145 49.62C90.1572 52.012 87.1412 53.208 83.4665 53.208ZM83.8305 27.208C81.1958 27.208 79.0118 28.3867 77.2785 30.744C75.5452 33.0667 74.6785 36.3253 74.6785 40.52C74.6785 44.68 75.4758 47.7653 77.0705 49.776C78.6652 51.7867 80.7798 52.792 83.4145 52.792C86.0492 52.792 88.2332 51.6307 89.9665 49.308C91.6998 46.9507 92.5665 43.692 92.5665 39.532C92.5665 35.3373 91.7692 32.2347 90.1745 30.224C88.5798 28.2133 86.4652 27.208 83.8305 27.208Z" fill="black"/>
<g clip-path="url(#clip0_15_34)">
<path d="M169 35C169 51.5685 155.569 65 139 65C122.431 65 109 51.5685 109 35C109 18.4314 122.431 5 139 5C155.569 5 169 18.4314 169 35Z" fill="#D3D3D3" fill-opacity="0.8"/>
<path d="M168.423 35C168.423 51.2499 155.25 64.4231 139 64.4231C122.75 64.4231 109.577 51.2499 109.577 35C109.577 18.7501 122.75 5.57692 139 5.57692C155.25 5.57692 168.423 18.7501 168.423 35Z" stroke="black" stroke-width="1.15385"/>
<path d="M136.865 23.0692C140.881 22.7923 144.412 22.6538 147.458 22.6538C156.042 22.6538 160.335 25.6827 160.335 31.7404C160.335 34.5442 159.608 37.0019 158.154 39.1135C157.392 40.2558 156.215 41.1731 154.623 41.8654C153.031 42.5231 151.11 42.8519 148.86 42.8519H141.175V59H136.865V23.0692ZM147.51 23.1731C145.502 23.1731 143.39 23.2942 141.175 23.5365V42.3327H148.86C153.74 42.125 156.181 38.6288 156.181 31.8442C156.181 29.075 155.454 26.9462 154 25.4577C152.546 23.9346 150.383 23.1731 147.51 23.1731Z" fill="#7C7C7C"/>
<path d="M143.321 9.73078C143.979 10.3885 144.308 11.2365 144.308 12.275C144.308 13.1404 144.117 14.0231 143.737 14.9231L130.444 46.0769L129.873 46.3366L116.788 9.73078H121.202L132.054 40.4692L143.113 14.9231C143.494 14.0577 143.685 13.1577 143.685 12.2231C143.685 11.2885 143.425 10.5615 142.906 10.0423L143.321 9.73078Z" fill="black"/>
</g>
<defs>
<clipPath id="clip0_15_34">
<rect width="60" height="60" fill="white" transform="translate(109 5)"/>
</clipPath>
</defs>
</svg>
